<svg xmlns="http://www.w3.org/2000/svg" viewBox="0 0 22 22">
    <path fill="currentColor" d="M11 3a8 8 0 1 0 8 8 8 8 0 0 0-8-8zm5.93 7h-3.02a12.7 12.7 0 0 0-1.2-4.08A6.02 6.02 0 0 1 16.93 10zM11 5.07c.68.89 1.36 2.51 1.67 4.93H9.33C9.64 7.58 10.32 5.96 11 5.07zM9.29 5.92A12.7 12.7 0 0 0 8.09 10H5.07a6.02 6.02 0 0 1 4.22-4.08zM5.07 12h3.02a12.7 12.7 0 0 0 1.2 4.08A6.02 6.02 0 0 1 5.07 12zM11 16.93c-.68-.89-1.36-2.51-1.67-4.93h3.34c-.31 2.42-.99 4.04-1.67 4.93zm1.71-.85A12.7 12.7 0 0 0 13.91 12h3.02a6.02 6.02 0 0 1-4.22 4.08z"/>
</svg>
