<svg xmlns="http://www.w3.org/2000/svg" viewBox="0 0 22 22">
    <path fill="currentColor" d="M11 17a1.5 1.5 0 1 0 0 3 1.5 1.5 0 0 0 0-3zm0-4c-1.89 0-3.63.78-4.89 2.05l1.42 1.41A4.9 4.9 0 0 1 11 15a4.9 4.9 0 0 1 3.47 1.46l1.42-1.41A6.88 6.88 0 0 0 11 13zm0-4c-3 0-5.74 1.24-7.72 3.22l1.41 1.41A9.86 9.86 0 0 1 11 11c2.45 0 4.67.89 6.31 2.63l1.41-1.41A11.84 11.84 0 0 0 11 9zm0-4C6.99 5 3.36 6.66.64 9.37l1.42 1.42A12.85 12.85 0 0 1 11 7c3.5 0 6.66 1.42 8.94 3.79l1.42-1.42A14.85 14.85 0 0 0 11 5z"/>
</svg>
